<svg width="84" height="72" viewBox="0 0 84 72" fill="none" xmlns="http://www.w3.org/2000/svg">
<path d="M6.85931 46.5417C-0.16149 23.1394 37.7016 -5.01596 52.7354 12.4278C62.6772 23.9608 61.941 51.6038 47.5275 62.3217C33.1141 73.0397 11.5003 62.0165 6.85931 46.5417Z" fill="url(#paint0_linear_6016_31)"/>
<path d="M6.85931 46.5417C-0.16149 23.1394 37.7016 -5.01596 52.7354 12.4278C62.6772 23.9608 61.941 51.6038 47.5275 62.3217C33.1141 73.0397 11.5003 62.0165 6.85931 46.5417Z" fill="white" fill-opacity="0.5"/>
<path fill-rule="evenodd" clip-rule="evenodd" d="M77.0132 42.1986C77.1896 41.327 77.2455 40.4157 77.1641 39.4847L76.3046 29.6603C76.2231 28.7294 76.0098 27.8417 75.6847 27.014C74.1868 23.2005 70.3151 20.6605 66.0261 21.0357L35.6821 23.6905C30.4621 24.1471 26.6007 28.749 27.0574 33.9689L27.9169 43.7933C28.3736 49.0132 32.9755 52.8746 38.1954 52.4179L68.5394 49.7632C72.8284 49.3879 76.2002 46.2143 77.0132 42.1986ZM78.1198 38.5867C78.1205 38.5866 78.1212 38.5866 78.1218 38.5865C79.2541 38.4864 80.0914 37.4878 79.9923 36.3552L79.6332 32.2513C79.5341 31.118 78.535 30.2797 77.4018 30.3788L78.1198 38.5867ZM35.9873 27.1788C32.6939 27.467 30.2577 30.3703 30.5458 33.6637L31.4053 43.4881C31.6935 46.7815 34.5968 49.2177 37.8902 48.9296L68.2342 46.2748C71.5276 45.9867 73.9638 43.0833 73.6757 39.7899L72.8162 29.9655C72.5281 26.6722 69.6247 24.2359 66.3313 24.5241L35.9873 27.1788Z" fill="#21201F"/>
<defs>
<linearGradient id="paint0_linear_6016_31" x1="57.8561" y1="20.8968" x2="7.22539" y2="48.2346" gradientUnits="userSpaceOnUse">
<stop stop-color="#FF5C4D"/>
<stop offset="0.25" stop-color="#EB469F"/>
<stop offset="0.72" stop-color="#8341EF"/>
<stop offset="1" stop-color="#3F68F9"/>
</linearGradient>
</defs>
</svg>
